<?xml version="1.0" encoding="utf-8"?>
<!-- Svg Vector Icons : http://www.onlinewebfonts.com/icon -->
<!DOCTYPE svg PUBLIC "-//W3C//DTD SVG 1.1//EN" "http://www.w3.org/Graphics/SVG/1.1/DTD/svg11.dtd">
<svg version="1.1" xmlns="http://www.w3.org/2000/svg" xmlns:xlink="http://www.w3.org/1999/xlink" x="0px" y="0px" viewBox="0 0 1000 1000" enable-background="new 0 0 1000 1000" xml:space="preserve">
<metadata> Svg Vector Icons : http://www.onlinewebfonts.com/icon </metadata>
<g><g><g><path d="M934.1,143L516.1,12.4c-10.5-3.3-21.7-3.3-32.2,0L65.9,143C43.3,150,28,170.9,28,194.6c0,577.9,292,716.1,448.9,790.3c7.3,3.5,15.2,5.2,23.1,5.2c7.9,0,15.8-1.7,23.1-5.2C680,910.6,972,772.5,972,194.6C972,170.9,956.6,150,934.1,143z M500,876.1c-149-71.6-352.3-190.1-363.5-642L500,120.6l363.4,113.5C852.2,686,649,804.6,500,876.1z"/><path d="M483.5,259.1l-43,142.5l-148.8-3.2c-7.6-0.2-14.3,4.6-16.7,11.8c-2.3,7.2,0.3,15.1,6.5,19.4l122.3,84.9l-49,140.6c-2.5,7.2,0,15,6.1,19.5c6.1,4.5,14.4,4.4,20.5-0.2l118.5-90l118.5,90c6,4.6,14.3,4.6,20.4,0.2c6.1-4.5,8.6-12.3,6.1-19.5l-49-140.6l122.3-84.9c6.2-4.3,8.9-12.2,6.5-19.4c-2.3-7.2-9.1-12-16.7-11.8l-148.8,3.2l-43-142.5c-2.2-7.2-8.9-12.2-16.4-12.2C492.4,246.9,485.8,251.8,483.5,259.1z"/></g></g><g></g><g></g><g></g><g></g><g></g><g></g><g></g><g></g><g></g><g></g><g></g><g></g><g></g><g></g><g></g></g>
</svg>